<mxfile host="app.diagrams.net" modified="2024-01-30T03:15:40.968Z" agent="Mozilla/5.0 (Windows NT 10.0; Win64; x64) AppleWebKit/537.36 (KHTML, like Gecko) Chrome/120.0.0.0 Safari/537.36" etag="PQWbjlloQ1vgJYY95gzI" version="23.0.2" type="github">
  <diagram name="Page-1" id="Zu1-DdzUMHhAPXXelpa9">
    <mxGraphModel dx="712" dy="794" grid="0" gridSize="10" guides="1" tooltips="1" connect="1" arrows="1" fold="1" page="0" pageScale="1" pageWidth="850" pageHeight="1100" math="0" shadow="0">
      <root>
        <mxCell id="0" />
        <mxCell id="1" parent="0" />
        <mxCell id="WRU8myrN_hEgH14OmpFI-1" value="A" style="ellipse;whiteSpace=wrap;html=1;aspect=fixed;fontSize=16;" vertex="1" parent="1">
          <mxGeometry x="174" y="9" width="33" height="33" as="geometry" />
        </mxCell>
        <mxCell id="WRU8myrN_hEgH14OmpFI-2" value="" style="endArrow=classic;html=1;rounded=0;fontSize=12;startSize=8;endSize=8;curved=1;exitX=1;exitY=1;exitDx=0;exitDy=0;" edge="1" parent="1" source="WRU8myrN_hEgH14OmpFI-1">
          <mxGeometry width="50" height="50" relative="1" as="geometry">
            <mxPoint x="175" y="225" as="sourcePoint" />
            <mxPoint x="244" y="89" as="targetPoint" />
          </mxGeometry>
        </mxCell>
        <mxCell id="WRU8myrN_hEgH14OmpFI-3" value="" style="endArrow=classic;html=1;rounded=0;fontSize=12;startSize=8;endSize=8;curved=1;exitX=0;exitY=1;exitDx=0;exitDy=0;" edge="1" parent="1" source="WRU8myrN_hEgH14OmpFI-1">
          <mxGeometry width="50" height="50" relative="1" as="geometry">
            <mxPoint x="175" y="225" as="sourcePoint" />
            <mxPoint x="141" y="91" as="targetPoint" />
          </mxGeometry>
        </mxCell>
        <mxCell id="WRU8myrN_hEgH14OmpFI-4" value="B" style="ellipse;whiteSpace=wrap;html=1;aspect=fixed;fontSize=16;" vertex="1" parent="1">
          <mxGeometry x="116" y="87" width="34" height="34" as="geometry" />
        </mxCell>
        <mxCell id="WRU8myrN_hEgH14OmpFI-5" value="C" style="ellipse;whiteSpace=wrap;html=1;aspect=fixed;fontSize=16;" vertex="1" parent="1">
          <mxGeometry x="237" y="87" width="33" height="33" as="geometry" />
        </mxCell>
        <mxCell id="WRU8myrN_hEgH14OmpFI-6" value="" style="endArrow=classic;html=1;rounded=0;fontSize=12;startSize=8;endSize=8;curved=1;exitX=0;exitY=1;exitDx=0;exitDy=0;" edge="1" parent="1">
          <mxGeometry width="50" height="50" relative="1" as="geometry">
            <mxPoint x="123" y="117" as="sourcePoint" />
            <mxPoint x="85" y="171" as="targetPoint" />
          </mxGeometry>
        </mxCell>
        <mxCell id="WRU8myrN_hEgH14OmpFI-8" value="" style="endArrow=classic;html=1;rounded=0;fontSize=12;startSize=8;endSize=8;curved=1;exitX=0;exitY=1;exitDx=0;exitDy=0;" edge="1" parent="1">
          <mxGeometry width="50" height="50" relative="1" as="geometry">
            <mxPoint x="264" y="115" as="sourcePoint" />
            <mxPoint x="303" y="168" as="targetPoint" />
          </mxGeometry>
        </mxCell>
        <mxCell id="WRU8myrN_hEgH14OmpFI-9" value="" style="endArrow=classic;html=1;rounded=0;fontSize=12;startSize=8;endSize=8;curved=1;exitX=0;exitY=1;exitDx=0;exitDy=0;" edge="1" parent="1">
          <mxGeometry width="50" height="50" relative="1" as="geometry">
            <mxPoint x="245" y="118" as="sourcePoint" />
            <mxPoint x="225" y="166" as="targetPoint" />
          </mxGeometry>
        </mxCell>
        <mxCell id="WRU8myrN_hEgH14OmpFI-10" value="" style="endArrow=classic;html=1;rounded=0;fontSize=12;startSize=8;endSize=8;curved=1;exitX=1;exitY=1;exitDx=0;exitDy=0;" edge="1" parent="1" source="WRU8myrN_hEgH14OmpFI-4">
          <mxGeometry width="50" height="50" relative="1" as="geometry">
            <mxPoint x="153" y="114.5" as="sourcePoint" />
            <mxPoint x="161" y="171" as="targetPoint" />
          </mxGeometry>
        </mxCell>
        <mxCell id="WRU8myrN_hEgH14OmpFI-11" value="D" style="ellipse;whiteSpace=wrap;html=1;aspect=fixed;fontSize=16;" vertex="1" parent="1">
          <mxGeometry x="59" y="168" width="33" height="33" as="geometry" />
        </mxCell>
        <mxCell id="WRU8myrN_hEgH14OmpFI-12" value="E" style="ellipse;whiteSpace=wrap;html=1;aspect=fixed;fontSize=16;" vertex="1" parent="1">
          <mxGeometry x="153" y="168" width="33" height="33" as="geometry" />
        </mxCell>
        <mxCell id="WRU8myrN_hEgH14OmpFI-13" value="F" style="ellipse;whiteSpace=wrap;html=1;aspect=fixed;fontSize=16;" vertex="1" parent="1">
          <mxGeometry x="202" y="165" width="33" height="33" as="geometry" />
        </mxCell>
        <mxCell id="WRU8myrN_hEgH14OmpFI-14" value="G" style="ellipse;whiteSpace=wrap;html=1;aspect=fixed;fontSize=16;" vertex="1" parent="1">
          <mxGeometry x="295" y="165" width="33" height="33" as="geometry" />
        </mxCell>
      </root>
    </mxGraphModel>
  </diagram>
</mxfile>
